<?xml version="1.0" encoding="UTF-8"?>
<svg fill="none" viewBox="0 0 35 35" xmlns="http://www.w3.org/2000/svg">
<title>Shopping Cart Icon</title>
<desc>A right-facing shopping cart that is purple.</desc>
<path d="m0 3.2812c0-0.29008 0.11523-0.56828 0.32035-0.7734s0.48332-0.32035 0.7734-0.32035h3.2812c0.24397 7e-5 0.48092 0.0817 0.67316 0.23193 0.19224 0.15022 0.32874 0.36041 0.38778 0.59713l0.88594 3.5459h25.397c0.1605 1.5e-4 0.3191 0.03566 0.4645 0.10402 0.1453 0.06835 0.2738 0.16787 0.3763 0.29149 0.1025 0.12361 0.1766 0.26829 0.2169 0.42375s0.0459 0.31788 0.0163 0.47574l-3.2812 17.5c-0.047 0.2506-0.18 0.477-0.3761 0.64-0.1961 0.1629-0.443 0.2523-0.698 0.2525h-19.688c-0.25499-2e-4 -0.50189-0.0896-0.69801-0.2525-0.19612-0.163-0.32913-0.3894-0.37605-0.64l-3.2791-17.467-0.87499-3.5153h-2.4281c-0.29008 0-0.56828-0.11523-0.7734-0.32035s-0.32035-0.48332-0.32035-0.7734zm10.938 22.969c-1.1603 0-2.2731 0.4609-3.0936 1.2814s-1.2814 1.9333-1.2814 3.0936 0.46094 2.2731 1.2814 3.0936 1.9333 1.2814 3.0936 1.2814c1.1603 0 2.2731-0.4609 3.0936-1.2814s1.2814-1.9333 1.2814-3.0936-0.4609-2.2731-1.2814-3.0936-1.9333-1.2814-3.0936-1.2814zm15.312 0c-1.1603 0-2.2731 0.4609-3.0936 1.2814s-1.2814 1.9333-1.2814 3.0936 0.4609 2.2731 1.2814 3.0936 1.9333 1.2814 3.0936 1.2814 2.2731-0.4609 3.0936-1.2814 1.2814-1.9333 1.2814-3.0936-0.4609-2.2731-1.2814-3.0936-1.9333-1.2814-3.0936-1.2814zm-15.312 2.1875c0.5802 0 1.1366 0.2305 1.5468 0.6407s0.6407 0.9666 0.6407 1.5468-0.2305 1.1366-0.6407 1.5468-0.9666 0.6407-1.5468 0.6407-1.1366-0.2305-1.5468-0.6407c-0.41023-0.4102-0.6407-0.9666-0.6407-1.5468s0.23047-1.1366 0.6407-1.5468c0.41024-0.4102 0.9666-0.6407 1.5468-0.6407zm15.312 0c0.5802 0 1.1366 0.2305 1.5468 0.6407s0.6407 0.9666 0.6407 1.5468-0.2305 1.1366-0.6407 1.5468-0.9666 0.6407-1.5468 0.6407-1.1366-0.2305-1.5468-0.6407-0.6407-0.9666-0.6407-1.5468 0.2305-1.1366 0.6407-1.5468 0.9666-0.6407 1.5468-0.6407z" fill="#94004E"/>
</svg>
