<?xml version="1.0" encoding="UTF-8"?>
<svg fill="none" viewBox="0 0 50 48" xmlns="http://www.w3.org/2000/svg">
<title>Facebook Logo</title>
<desc>An f symbol representing the Facebook logo.</desc>
<path d="m8.2167 0c-4.5517 0-8.2167 3.5021-8.2167 7.8515v27.297c0 4.3494 3.665 7.8516 8.2167 7.8516h15.483v-16.81h-4.6519v-6.0523h4.6519v-5.1707c0-4.0624 2.7485-7.7924 9.0801-7.7924 2.5636 0 4.4592 0.23516 4.4592 0.23516l-0.149 5.6519s-1.9334-0.0175-4.043-0.0175c-2.2833 0-2.6494 1.0053-2.6494 2.6741v4.4196h6.8738l-0.2996 6.0522h-6.5742v16.81h6.3858c4.5517 0 8.2167-3.5021 8.2167-7.8515v-27.297c0-4.3494-3.665-7.8515-8.2167-7.8515h-28.567l4e-5 -4.3e-5z" fill="#94004E"/>
</svg>
