<?xml version="1.0" encoding="UTF-8"?>
<svg fill="none" viewBox="0 0 50 48" xmlns="http://www.w3.org/2000/svg">
<title>Instagram Logo</title>
<desc>A front-facing camera that represents the Instagram logo.</desc>
<path d="m15.552 2.132c2.4437-0.108 3.2229-0.132 9.4479-0.132s7.0042 0.026 9.4458 0.132c2.4417 0.106 4.1084 0.48 5.5667 1.022 1.5271 0.554 2.9125 1.42 4.0583 2.54 1.1667 1.098 2.0667 2.426 2.6417 3.894 0.5667 1.4 0.9542 3 1.0667 5.34 0.1125 2.35 0.1375 3.098 0.1375 9.072 0 5.976-0.0271 6.724-0.1375 9.07-0.1105 2.34-0.5 3.94-1.0667 5.34-0.575 1.4682-1.4765 2.7984-2.6417 3.898-1.1458 1.12-2.5312 1.984-4.0583 2.536-1.4583 0.544-3.125 0.916-5.5625 1.024-2.4458 0.108-3.225 0.132-9.45 0.132s-7.0042-0.026-9.4479-0.132c-2.4375-0.106-4.1042-0.48-5.5625-1.024-1.5293-0.5521-2.915-1.4175-4.0604-2.536-1.1659-1.0987-2.0681-2.4282-2.6438-3.896-0.56458-1.4-0.95208-3-1.0646-5.34-0.1125-2.35-0.1375-3.098-0.1375-9.072 0-5.976 0.02708-6.724 0.1375-9.068 0.11041-2.344 0.5-3.944 1.0646-5.344 0.57651-1.4678 1.4794-2.7974 2.6458-3.896 1.1438-1.119 2.5281-1.9851 4.0563-2.538 1.4583-0.542 3.125-0.914 5.5625-1.022h0.0021zm18.708 3.96c-2.4167-0.106-3.1417-0.128-9.2604-0.128-6.1188 0-6.8438 0.022-9.2604 0.128-2.2354 0.098-3.4479 0.456-4.2563 0.758-1.0687 0.4-1.8333 0.874-2.6354 1.644-0.76032 0.7101-1.3455 1.5746-1.7125 2.53-0.31458 0.776-0.6875 1.94-0.78958 4.086-0.11042 2.32-0.13333 3.016-0.13333 8.89s0.02291 6.57 0.13333 8.89c0.10208 2.146 0.475 3.31 0.78958 4.086 0.36667 0.954 0.95209 1.82 1.7125 2.53 0.73959 0.73 1.6417 1.292 2.6354 1.644 0.8084 0.302 2.0209 0.66 4.2563 0.758 2.4166 0.106 3.1396 0.128 9.2604 0.128s6.8437-0.022 9.2604-0.128c2.2354-0.098 3.4479-0.456 4.2563-0.758 1.0687-0.4 1.8333-0.874 2.6354-1.644 0.7604-0.71 1.3458-1.576 1.7125-2.53 0.3146-0.776 0.6875-1.94 0.7896-4.086 0.1104-2.32 0.1333-3.016 0.1333-8.89s-0.0229-6.57-0.1333-8.89c-0.1021-2.146-0.475-3.31-0.7896-4.086-0.4167-1.026-0.9104-1.76-1.7125-2.53-0.7398-0.72986-1.6402-1.2916-2.6354-1.644-0.8084-0.302-2.0209-0.66-4.2563-0.758zm-12.188 24.69c1.6347 0.6533 3.455 0.7414 5.1499 0.2494 1.6949-0.4919 3.1593-1.5336 4.1431-2.9469 0.9837-1.4134 1.4259-3.1108 1.2509-4.8023-0.1751-1.6915-0.9564-3.2723-2.2106-4.4722-0.7995-0.767-1.7662-1.3544-2.8305-1.7197s-2.1998-0.4996-3.3247-0.3931c-1.1248 0.1065-2.2111 0.4512-3.1806 1.0091s-1.798 1.3152-2.426 2.2174-1.0398 1.9269-1.2058 3.0002c-0.166 1.0734-0.082 2.1687 0.2459 3.2071 0.3278 1.0385 0.8915 1.9942 1.6503 2.7984 0.7589 0.8043 1.694 1.437 2.7381 1.8526zm-5.4021-14.778c1.0938-1.0501 2.3924-1.883 3.8215-2.4513s2.9608-0.8608 4.5077-0.8608 3.0786 0.2925 4.5077 0.8608 2.7277 1.4012 3.8215 2.4513c1.0938 1.05 1.9614 2.2966 2.5534 3.6686 0.5919 1.372 0.8966 2.8424 0.8966 4.3274s-0.3047 2.9554-0.8966 4.3274c-0.592 1.372-1.4596 2.6186-2.5534 3.6686-2.2091 2.1207-5.2052 3.3121-8.3292 3.3121s-6.1201-1.1914-8.3292-3.3121c-2.209-2.1207-3.45-4.9969-3.45-7.996s1.241-5.8753 3.45-7.996zm22.721-1.628c0.271-0.2455 0.488-0.5406 0.6381-0.8681 0.1501-0.3274 0.2302-0.6804 0.2356-1.038 0.0055-0.3577-0.0639-0.7128-0.204-1.0443s-0.348-0.6326-0.6115-0.8855c-0.2635-0.253-0.5771-0.4526-0.9224-0.58706-0.3453-0.13448-0.7152-0.20109-1.0878-0.19587-0.3726 0.00521-0.7403 0.08214-1.0813 0.22622-0.3411 0.14411-0.6485 0.35241-0.9042 0.61261-0.4973 0.5061-0.7696 1.1782-0.759 1.8739 0.0106 0.6956 0.3031 1.3599 0.8155 1.8518 0.5125 0.4919 1.2044 0.7728 1.929 0.7829s1.4248-0.2512 1.952-0.7286z" clip-rule="evenodd" fill="#94004E" fill-rule="evenodd"/>
</svg>
